<svg xmlns="http://www.w3.org/2000/svg" width="24" height="24" fill="none" viewBox="0 0 24 24">
                                <g clip-path="url(#clip0_69_24)">
                                    
                                    <path fill-rule="evenodd" clip-rule="evenodd" d="M23.9996 12C23.9996 14.4406 23.271 16.711 22.0194 18.6056L5.39393 1.98015C7.28854 0.728598 9.55897 0 11.9996 0C18.627 0 23.9996 5.37258 23.9996 12ZM3.81221 3.22685L20.7727 20.1874C20.0981 20.9099 19.3353 21.5491 18.5015 22.0876L1.91193 5.49814C2.4505 4.66428 3.08964 3.90146 3.81221 3.22685ZM11.5781 23.9927L0.00683594 12.4215C0.224039 18.7138 5.28576 23.7755 11.5781 23.9927ZM14.2106 23.7967C15.0587 23.6388 15.8754 23.3916 16.6507 23.0653L0.934232 7.34887C0.607961 8.12416 0.360791 8.94092 0.202828 9.78904L14.2106 23.7967Z" fill="#4F46E5"></path>
                                </g>
                                
                                <defs>
                                    <clipPath id="clip0_69_24">
                                        <rect width="115" height="24" fill="#4F46E5"></rect>
                                    </clipPath>
                                </defs>
                            </svg>